<svg width="163" height="47" viewBox="0 0 163 47" fill="none" xmlns="http://www.w3.org/2000/svg">
<path d="M0.972301 38.0739H22.6151V46H31.7301V38.0739H37.3224V30.4339H31.7301V0.90909H19.7969L0.972301 30.5661V38.0739ZM22.7912 30.4339H10.5717V30.0817L22.4389 11.3011H22.7912V30.4339ZM61.354 46.9908C72.6928 46.9908 79.5401 38.3601 79.5621 23.4986C79.5842 8.74716 72.6488 0.292612 61.354 0.292612C50.0373 0.292612 43.168 8.72514 43.146 23.4986C43.1019 38.3161 49.9933 46.9688 61.354 46.9908ZM61.354 39.0866C56.18 39.0866 52.8335 33.8906 52.8555 23.4986C52.8775 13.2607 56.2021 8.10867 61.354 8.10867C66.484 8.10867 69.8306 13.2607 69.8306 23.4986C69.8526 33.8906 66.506 39.0866 61.354 39.0866ZM104.04 46.9908C115.378 46.9908 122.226 38.3601 122.248 23.4986C122.27 8.74716 115.334 0.292612 104.04 0.292612C92.7228 0.292612 85.8535 8.72514 85.8315 23.4986C85.7875 38.3161 92.6788 46.9688 104.04 46.9908ZM104.04 39.0866C98.8656 39.0866 95.519 33.8906 95.541 23.4986C95.563 13.2607 98.8876 8.10867 104.04 8.10867C109.17 8.10867 112.516 13.2607 112.516 23.4986C112.538 33.8906 109.192 39.0866 104.04 39.0866ZM142.52 39.1307H150.402V27.4837H162.049V19.6016H150.402V7.95454H142.52V19.6016H130.873V27.4837H142.52V39.1307Z" fill="#101131"/>
</svg>
